<svg xmlns="http://www.w3.org/2000/svg" viewBox="0 0 393.91 197.29"><defs><style>.cls-1{isolation:isolate;}.cls-2{fill:none;}.cls-10,.cls-12,.cls-15,.cls-18,.cls-19,.cls-2,.cls-20,.cls-21,.cls-3,.cls-4,.cls-6,.cls-7,.cls-9{stroke:#3b1151;stroke-linecap:round;stroke-linejoin:round;stroke-width:2px;}.cls-3{fill:#aa7cb5;}.cls-4{fill:#a1d2d9;}.cls-5{fill:#3b1151;}.cls-6{fill:#ffde00;}.cls-7{fill:#e83274;}.cls-8{fill:#f9b104;}.cls-9{fill:#d63051;}.cls-10{fill:#fff;}.cls-11,.cls-20{fill:#d995c1;}.cls-12{fill:#55aea3;}.cls-13{fill:#72b7bc;}.cls-14{fill:#a3cfe7;}.cls-14,.cls-17{mix-blend-mode:multiply;}.cls-15{fill:#45babd;}.cls-16{fill:#c4d4de;opacity:0.5;mix-blend-mode:soft-light;}.cls-17{fill:#abb9c1;}.cls-18{fill:#f6f6f6;}.cls-19{fill:#7c5da4;}.cls-21{fill:silver;}</style></defs><g class="cls-1"><g id="Слой_2" data-name="Слой 2"><g id="Capa_1" data-name="Capa 1"><path class="cls-2" d="M350.63,97.34a66.53,66.53,0,1,1-66.52-66.53A66.52,66.52,0,0,1,350.63,97.34Z"/><path class="cls-2" d="M311,97.34c0,36.74-12,66.52-26.85,66.52s-26.86-29.78-26.86-66.52,12-66.53,26.86-66.53S311,60.6,311,97.34Z"/><line class="cls-2" x1="284.11" y1="30.81" x2="284.11" y2="163.86"/><path class="cls-2" d="M284.11,124.19c-36.74,0-66.53-12-66.53-26.85s29.79-26.86,66.53-26.86,66.52,12,66.52,26.86S320.85,124.19,284.11,124.19Z"/><line class="cls-2" x1="350.63" y1="97.34" x2="217.58" y2="97.34"/><path class="cls-3" d="M354.24,135.54c5.37,0,6.75-4.15,3.52-8.19s-21.25-30.61-21.25-30.61V69.61H323.62V96.45s-18.92,28.47-21.14,30.9-.35,8.46,5,8.46S348.87,135.54,354.24,135.54Z"/><path class="cls-4" d="M344.52,114.47H315.8c-3.62,5.34-7.11,10.42-7.91,11.3-1.8,2-.28,6.82,4.05,6.82s33.39-.21,37.73-.21,5.45-3.36,2.84-6.61C351.38,124.35,348,119.5,344.52,114.47Z"/><rect class="cls-3" x="321.2" y="66.66" width="17.73" height="6.18"/><line class="cls-2" x1="321.2" y1="68.81" x2="330.07" y2="68.81"/><line class="cls-2" x1="334.1" y1="68.81" x2="336.51" y2="68.81"/><path class="cls-5" d="M325,126.55a2.11,2.11,0,1,1-2.11-2.1A2.1,2.1,0,0,1,325,126.55Z"/><path class="cls-5" d="M338.28,125.71a2.11,2.11,0,1,1-2.1-2.1A2.1,2.1,0,0,1,338.28,125.71Z"/><path class="cls-5" d="M328.67,122.35a1.18,1.18,0,1,1-1.18-1.17A1.18,1.18,0,0,1,328.67,122.35Z"/><circle class="cls-5" cx="334.07" cy="120" r="1.18"/><circle class="cls-5" cx="328.58" cy="125.71" r="1.08"/><circle class="cls-5" cx="339.03" cy="122.6" r="0.65"/><path class="cls-5" d="M323.55,122a.65.65,0,1,1-.65-.64A.65.65,0,0,1,323.55,122Z"/><line class="cls-2" x1="326.32" y1="72.83" x2="326.32" y2="85.67"/><line class="cls-2" x1="328.67" y1="72.83" x2="328.67" y2="77.26"/><rect class="cls-6" x="24.33" y="77.93" width="26.85" height="110.61"/><rect class="cls-7" x="24.33" y="93.7" width="26.85" height="8.53"/><rect class="cls-8" x="31.04" y="109.29" width="13.42" height="63.95"/><rect class="cls-9" x="103.88" y="75.99" width="26.85" height="110.61" transform="translate(-37.18 46.83) rotate(-19.55)"/><rect class="cls-10" x="92.07" y="93.8" width="26.85" height="8.53" transform="translate(-26.74 40.97) rotate(-19.55)"/><rect class="cls-11" x="113.27" y="106.88" width="13.42" height="63.95" transform="translate(-39.56 48.18) rotate(-19.56)"/><rect class="cls-12" x="51.17" y="77.93" width="34.59" height="110.61"/><rect class="cls-6" x="51.17" y="93.7" width="34.59" height="8.53"/><rect class="cls-13" x="57.89" y="109.29" width="21.3" height="63.95"/><line class="cls-9" x1="13.4" y1="188.54" x2="168.28" y2="188.54"/><path class="cls-9" d="M305.3,190.94c-11.41,0-10.91-22.62,0-22.62h77.93v-3.83H292.41c-11.48,0-12,30.28,0,30.28h90.82v-3.83Z"/><path class="cls-10" d="M381.41,190.94H297c-11.41,0-10.91-22.62,0-22.62h84.46Z"/><path class="cls-14" d="M304,168.32h-7c-10.91,0-11.41,22.62,0,22.62h7C292.59,190.94,293.08,168.32,304,168.32Z"/><line class="cls-2" x1="381.41" y1="173.1" x2="355.83" y2="173.1"/><line class="cls-2" x1="381.41" y1="179.63" x2="373.58" y2="179.63"/><line class="cls-2" x1="381.41" y1="184.59" x2="351.13" y2="184.59"/><line class="cls-2" x1="289.45" y1="174.5" x2="308.33" y2="174.5"/><line class="cls-2" x1="288.6" y1="180.69" x2="296.29" y2="180.69"/><line class="cls-2" x1="291.11" y1="184.59" x2="315.38" y2="184.59"/><line class="cls-2" x1="318.51" y1="178.32" x2="339.39" y2="178.32"/><line class="cls-2" x1="334.99" y1="173.1" x2="345.65" y2="173.1"/><line class="cls-2" x1="333.42" y1="184.59" x2="339.39" y2="184.59"/><path class="cls-6" d="M300.83,160.66c-11.41,0-10.91-22.61,0-22.61h77.94v-3.83H287.94c-11.48,0-12,30.27,0,30.27h90.83v-3.83Z"/><path class="cls-10" d="M376.94,160.66H292.48c-11.41,0-10.91-22.61,0-22.61h84.46Z"/><path class="cls-14" d="M299.53,138.05h-7c-10.91,0-11.41,22.61,0,22.61h7C288.12,160.66,288.62,138.05,299.53,138.05Z"/><line class="cls-2" x1="376.94" y1="142.83" x2="351.36" y2="142.83"/><line class="cls-2" x1="376.94" y1="149.35" x2="369.11" y2="149.35"/><line class="cls-2" x1="376.94" y1="154.31" x2="346.67" y2="154.31"/><line class="cls-2" x1="284.98" y1="144.23" x2="303.87" y2="144.23"/><line class="cls-2" x1="284.13" y1="150.41" x2="291.82" y2="150.41"/><line class="cls-2" x1="286.64" y1="154.31" x2="310.91" y2="154.31"/><line class="cls-2" x1="314.04" y1="148.05" x2="334.92" y2="148.05"/><line class="cls-2" x1="330.52" y1="142.83" x2="341.18" y2="142.83"/><line class="cls-2" x1="328.95" y1="154.31" x2="334.92" y2="154.31"/><rect class="cls-10" x="127.08" y="87.37" width="158.5" height="97.01" rx="3.9"/><rect class="cls-15" x="132.06" y="97.34" width="148.54" height="80.98"/><path class="cls-16" d="M190,134.43c24.73,19.72,58,27.48,89.24,23.32V98.53H168.67C170.19,112.67,178.59,125.36,190,134.43Z"/><polygon class="cls-17" points="134.88 175.29 134.88 97.33 132.06 97.33 132.06 178.32 280.6 178.32 280.6 175.29 134.88 175.29"/><path class="cls-10" d="M117.54,184.38h184s0,11.91-10.18,11.91H128.58C119.81,196.29,117.54,184.38,117.54,184.38Z"/><rect class="cls-18" x="132.06" y="97.34" width="148.54" height="7.79"/><path class="cls-18" d="M263.93,101.56a2.28,2.28,0,1,1-2.28-2.28A2.28,2.28,0,0,1,263.93,101.56Z"/><path class="cls-18" d="M270.53,101.56a2.27,2.27,0,1,1-2.27-2.28A2.27,2.27,0,0,1,270.53,101.56Z"/><path class="cls-18" d="M277.14,101.56a2.28,2.28,0,1,1-2.28-2.28A2.28,2.28,0,0,1,277.14,101.56Z"/><path class="cls-18" d="M218.89,101.23a2.28,2.28,0,0,1-2.27,2.28H141.7a2.28,2.28,0,0,1-2.28-2.28h0A2.28,2.28,0,0,1,141.7,99h74.92a2.27,2.27,0,0,1,2.27,2.27Z"/><rect class="cls-18" x="153.9" y="109.03" width="104.85" height="66.04"/><rect class="cls-19" x="153.9" y="109.03" width="104.85" height="11.69"/><line class="cls-2" x1="162.57" y1="129.38" x2="191.15" y2="129.38"/><line class="cls-2" x1="195.48" y1="129.38" x2="200.68" y2="129.38"/><line class="cls-2" x1="206.33" y1="129.38" x2="223.12" y2="129.38"/><line class="cls-2" x1="162.57" y1="137.61" x2="173.83" y2="137.61"/><line class="cls-2" x1="179.89" y1="137.61" x2="186.38" y2="137.61"/><line class="cls-2" x1="191.15" y1="137.61" x2="222.23" y2="137.61"/><line class="cls-2" x1="162.57" y1="145.84" x2="171.23" y2="145.84"/><line class="cls-2" x1="176.86" y1="145.84" x2="211.5" y2="145.84"/><line class="cls-2" x1="218" y1="145.84" x2="225.79" y2="145.84"/><line class="cls-2" x1="232.12" y1="145.84" x2="252.26" y2="145.84"/><line class="cls-2" x1="162.57" y1="150.93" x2="191.15" y2="150.93"/><line class="cls-2" x1="195.48" y1="150.93" x2="200.68" y2="150.93"/><line class="cls-2" x1="206.33" y1="150.93" x2="238.13" y2="150.93"/><line class="cls-2" x1="243" y1="150.93" x2="252.26" y2="150.93"/><line class="cls-2" x1="162.57" y1="159.15" x2="173.83" y2="159.15"/><line class="cls-2" x1="179.89" y1="159.15" x2="186.38" y2="159.15"/><line class="cls-2" x1="191.15" y1="159.15" x2="222.23" y2="159.15"/><line class="cls-2" x1="228.88" y1="159.15" x2="235.37" y2="159.15"/><line class="cls-2" x1="238.13" y1="159.15" x2="252.26" y2="159.15"/><line class="cls-2" x1="162.57" y1="167.38" x2="171.23" y2="167.38"/><line class="cls-2" x1="176.86" y1="167.38" x2="211.5" y2="167.38"/><line class="cls-2" x1="218" y1="167.38" x2="225.79" y2="167.38"/><line class="cls-2" x1="232.12" y1="167.38" x2="252.26" y2="167.38"/><rect class="cls-20" x="226.69" y="126.81" width="26.63" height="14.45"/><path class="cls-15" d="M212.71,92.79a3.17,3.17,0,1,1-3.16-3.17A3.16,3.16,0,0,1,212.71,92.79Z"/><rect class="cls-21" x="194.79" y="184.38" width="29.51" height="5.95"/><polygon class="cls-10" points="178.12 48.18 163.96 48.18 169.93 60.62 147.98 48.18 102.63 48.18 102.63 1 178.12 1 178.12 48.18"/><rect class="cls-5" x="112.28" y="12.65" width="56.18" height="6.63"/><rect class="cls-5" x="112.28" y="24.59" width="56.18" height="3.32"/><rect class="cls-5" x="112.28" y="31.45" width="40.12" height="3.32"/><line class="cls-6" x1="21.63" y1="51.17" x2="21.63" y2="37.71"/><line class="cls-6" x1="14.89" y1="44.44" x2="28.36" y2="44.44"/><line class="cls-6" x1="72.45" y1="14.95" x2="72.45" y2="1.48"/><line class="cls-6" x1="65.72" y1="8.21" x2="79.18" y2="8.21"/><line class="cls-6" x1="195.48" y1="60.62" x2="195.48" y2="47.16"/><line class="cls-6" x1="188.75" y1="53.89" x2="202.21" y2="53.89"/><line class="cls-6" x1="265.99" y1="19.38" x2="265.99" y2="5.92"/><line class="cls-6" x1="259.25" y1="12.65" x2="272.72" y2="12.65"/><line class="cls-6" x1="361.8" y1="34.64" x2="361.8" y2="21.18"/><line class="cls-6" x1="355.07" y1="27.91" x2="368.54" y2="27.91"/><line class="cls-6" x1="386.18" y1="113.31" x2="386.18" y2="99.84"/><line class="cls-6" x1="379.45" y1="106.57" x2="392.91" y2="106.57"/><path class="cls-6" d="M68.75,37.71a2.95,2.95,0,1,1-3-3A2.95,2.95,0,0,1,68.75,37.71Z"/><path class="cls-6" d="M217.67,16a2.95,2.95,0,1,1-2.95-3A2.95,2.95,0,0,1,217.67,16Z"/><path class="cls-6" d="M325.85,8.21a2.95,2.95,0,1,1-3-2.94A2.95,2.95,0,0,1,325.85,8.21Z"/><path class="cls-6" d="M389.13,77.93a2.95,2.95,0,1,1-2.95-3A2.95,2.95,0,0,1,389.13,77.93Z"/><path class="cls-6" d="M6.89,82.2a2.95,2.95,0,1,1-2.94-3A2.95,2.95,0,0,1,6.89,82.2Z"/></g></g></g></svg>